<mxfile host="app.diagrams.net" modified="2023-03-29T11:16:06.341Z" agent="Mozilla/5.0 (Windows NT 10.0; Win64; x64) AppleWebKit/537.36 (KHTML, like Gecko) Chrome/111.0.0.0 Safari/537.36 Edg/111.0.1661.54" etag="9Fas4aeiZvgOxcDWm50e" version="21.1.1" type="device">
  <diagram id="C5RBs43oDa-KdzZeNtuy" name="Page-1">
    <mxGraphModel dx="2223" dy="1051" grid="1" gridSize="10" guides="1" tooltips="1" connect="1" arrows="1" fold="1" page="1" pageScale="1" pageWidth="827" pageHeight="1169" math="0" shadow="0">
      <root>
        <mxCell id="WIyWlLk6GJQsqaUBKTNV-0" />
        <mxCell id="WIyWlLk6GJQsqaUBKTNV-1" parent="WIyWlLk6GJQsqaUBKTNV-0" />
        <mxCell id="zkfFHV4jXpPFQw0GAbJ--0" value="StandardObject" style="swimlane;fontStyle=2;align=center;verticalAlign=top;childLayout=stackLayout;horizontal=1;startSize=26;horizontalStack=0;resizeParent=1;resizeLast=0;collapsible=1;marginBottom=0;rounded=0;shadow=0;strokeWidth=1;" parent="WIyWlLk6GJQsqaUBKTNV-1" vertex="1">
          <mxGeometry x="60" y="40" width="160" height="82" as="geometry">
            <mxRectangle x="230" y="140" width="160" height="26" as="alternateBounds" />
          </mxGeometry>
        </mxCell>
        <mxCell id="zkfFHV4jXpPFQw0GAbJ--1" value="class&#xa;" style="text;align=left;verticalAlign=top;spacingLeft=4;spacingRight=4;overflow=hidden;rotatable=0;points=[[0,0.5],[1,0.5]];portConstraint=eastwest;" parent="zkfFHV4jXpPFQw0GAbJ--0" vertex="1">
          <mxGeometry y="26" width="160" height="26" as="geometry" />
        </mxCell>
        <mxCell id="6tYTIHBlfklHP2yxRY0i-0" value="slots&lt;br&gt;" style="text;html=1;align=left;verticalAlign=middle;resizable=0;points=[];autosize=1;strokeColor=none;fillColor=none;spacingLeft=4;" vertex="1" parent="zkfFHV4jXpPFQw0GAbJ--0">
          <mxGeometry y="52" width="160" height="30" as="geometry" />
        </mxCell>
        <mxCell id="6tYTIHBlfklHP2yxRY0i-2" value="Every object in our system has this structure" style="text;html=1;strokeColor=none;fillColor=none;align=center;verticalAlign=middle;whiteSpace=wrap;rounded=0;" vertex="1" parent="WIyWlLk6GJQsqaUBKTNV-1">
          <mxGeometry x="20" y="10" width="250" height="30" as="geometry" />
        </mxCell>
        <mxCell id="6tYTIHBlfklHP2yxRY0i-4" value="StandardClass" style="swimlane;fontStyle=2;align=center;verticalAlign=top;childLayout=stackLayout;horizontal=1;startSize=26;horizontalStack=0;resizeParent=1;resizeLast=0;collapsible=1;marginBottom=0;rounded=0;shadow=0;strokeWidth=1;" vertex="1" parent="WIyWlLk6GJQsqaUBKTNV-1">
          <mxGeometry x="560" y="50" width="160" height="240" as="geometry">
            <mxRectangle x="230" y="140" width="160" height="26" as="alternateBounds" />
          </mxGeometry>
        </mxCell>
        <mxCell id="6tYTIHBlfklHP2yxRY0i-5" value="name" style="text;align=left;verticalAlign=top;spacingLeft=4;spacingRight=4;overflow=hidden;rotatable=0;points=[[0,0.5],[1,0.5]];portConstraint=eastwest;" vertex="1" parent="6tYTIHBlfklHP2yxRY0i-4">
          <mxGeometry y="26" width="160" height="26" as="geometry" />
        </mxCell>
        <mxCell id="6tYTIHBlfklHP2yxRY0i-6" value="direct_superclasses" style="text;html=1;align=left;verticalAlign=middle;resizable=0;points=[];autosize=1;strokeColor=none;fillColor=none;spacingLeft=4;" vertex="1" parent="6tYTIHBlfklHP2yxRY0i-4">
          <mxGeometry y="52" width="160" height="30" as="geometry" />
        </mxCell>
        <mxCell id="6tYTIHBlfklHP2yxRY0i-9" value="direct_slots" style="text;html=1;align=left;verticalAlign=middle;resizable=0;points=[];autosize=1;strokeColor=none;fillColor=none;spacingLeft=4;" vertex="1" parent="6tYTIHBlfklHP2yxRY0i-4">
          <mxGeometry y="82" width="160" height="30" as="geometry" />
        </mxCell>
        <mxCell id="6tYTIHBlfklHP2yxRY0i-10" value="class_precedence_list" style="text;html=1;align=left;verticalAlign=middle;resizable=0;points=[];autosize=1;strokeColor=none;fillColor=none;spacingLeft=4;" vertex="1" parent="6tYTIHBlfklHP2yxRY0i-4">
          <mxGeometry y="112" width="160" height="30" as="geometry" />
        </mxCell>
        <mxCell id="6tYTIHBlfklHP2yxRY0i-11" value="effective_slots" style="text;html=1;align=left;verticalAlign=middle;resizable=0;points=[];autosize=1;strokeColor=none;fillColor=none;spacingLeft=4;" vertex="1" parent="6tYTIHBlfklHP2yxRY0i-4">
          <mxGeometry y="142" width="160" height="30" as="geometry" />
        </mxCell>
        <mxCell id="6tYTIHBlfklHP2yxRY0i-12" value="direct_subclasses" style="text;html=1;align=left;verticalAlign=middle;resizable=0;points=[];autosize=1;strokeColor=none;fillColor=none;spacingLeft=4;" vertex="1" parent="6tYTIHBlfklHP2yxRY0i-4">
          <mxGeometry y="172" width="160" height="30" as="geometry" />
        </mxCell>
        <mxCell id="6tYTIHBlfklHP2yxRY0i-13" value="direct_methods" style="text;html=1;align=left;verticalAlign=middle;resizable=0;points=[];autosize=1;strokeColor=none;fillColor=none;spacingLeft=4;" vertex="1" parent="6tYTIHBlfklHP2yxRY0i-4">
          <mxGeometry y="202" width="160" height="30" as="geometry" />
        </mxCell>
        <mxCell id="6tYTIHBlfklHP2yxRY0i-14" value="This is the standard structure for the instances of any class in our system" style="text;html=1;strokeColor=none;fillColor=none;align=center;verticalAlign=middle;whiteSpace=wrap;rounded=0;" vertex="1" parent="WIyWlLk6GJQsqaUBKTNV-1">
          <mxGeometry x="510" width="250" height="50" as="geometry" />
        </mxCell>
        <mxCell id="6tYTIHBlfklHP2yxRY0i-15" value="Class" style="swimlane;fontStyle=2;align=center;verticalAlign=top;childLayout=stackLayout;horizontal=1;startSize=26;horizontalStack=0;resizeParent=1;resizeLast=0;collapsible=1;marginBottom=0;rounded=0;shadow=0;strokeWidth=1;" vertex="1" parent="WIyWlLk6GJQsqaUBKTNV-1">
          <mxGeometry x="60" y="298" width="160" height="82" as="geometry">
            <mxRectangle x="230" y="140" width="160" height="26" as="alternateBounds" />
          </mxGeometry>
        </mxCell>
        <mxCell id="6tYTIHBlfklHP2yxRY0i-16" value="class&#xa;" style="text;align=left;verticalAlign=top;spacingLeft=4;spacingRight=4;overflow=hidden;rotatable=0;points=[[0,0.5],[1,0.5]];portConstraint=eastwest;" vertex="1" parent="6tYTIHBlfklHP2yxRY0i-15">
          <mxGeometry y="26" width="160" height="26" as="geometry" />
        </mxCell>
        <mxCell id="6tYTIHBlfklHP2yxRY0i-17" value="slots&lt;br&gt;" style="text;html=1;align=left;verticalAlign=middle;resizable=0;points=[];autosize=1;strokeColor=none;fillColor=none;spacingLeft=4;" vertex="1" parent="6tYTIHBlfklHP2yxRY0i-15">
          <mxGeometry y="52" width="160" height="30" as="geometry" />
        </mxCell>
        <mxCell id="6tYTIHBlfklHP2yxRY0i-22" value="Class is an instance of itself" style="endArrow=none;dashed=1;html=1;dashPattern=1 3;strokeWidth=2;rounded=0;entryX=0.347;entryY=1.016;entryDx=0;entryDy=0;entryPerimeter=0;" edge="1" parent="6tYTIHBlfklHP2yxRY0i-15" source="6tYTIHBlfklHP2yxRY0i-16" target="6tYTIHBlfklHP2yxRY0i-17">
          <mxGeometry x="-0.4166" y="-40" width="50" height="50" relative="1" as="geometry">
            <mxPoint x="30" y="132" as="sourcePoint" />
            <mxPoint x="80" y="82" as="targetPoint" />
            <Array as="points">
              <mxPoint x="-40" y="42" />
              <mxPoint x="-40" y="102" />
              <mxPoint x="56" y="102" />
            </Array>
            <mxPoint as="offset" />
          </mxGeometry>
        </mxCell>
        <mxCell id="6tYTIHBlfklHP2yxRY0i-18" value="Class is the first object in our system.&lt;br&gt;It is an object that represents a class.&lt;br&gt;&amp;nbsp;ALL objects instantiated in our system will be an instance of this class Class." style="text;html=1;strokeColor=none;fillColor=none;align=center;verticalAlign=middle;whiteSpace=wrap;rounded=0;" vertex="1" parent="WIyWlLk6GJQsqaUBKTNV-1">
          <mxGeometry x="30" y="250" width="230" height="30" as="geometry" />
        </mxCell>
        <mxCell id="6tYTIHBlfklHP2yxRY0i-20" value="class field desbribes the class whose instance this object is of" style="text;html=1;strokeColor=none;fillColor=none;align=center;verticalAlign=middle;whiteSpace=wrap;rounded=0;" vertex="1" parent="WIyWlLk6GJQsqaUBKTNV-1">
          <mxGeometry x="-10" y="130" width="340" height="30" as="geometry" />
        </mxCell>
        <mxCell id="6tYTIHBlfklHP2yxRY0i-21" value="slots field describe the structure of the instances" style="text;html=1;strokeColor=none;fillColor=none;align=center;verticalAlign=middle;whiteSpace=wrap;rounded=0;" vertex="1" parent="WIyWlLk6GJQsqaUBKTNV-1">
          <mxGeometry x="-10" y="155" width="270" height="30" as="geometry" />
        </mxCell>
        <mxCell id="6tYTIHBlfklHP2yxRY0i-24" value="Object" style="swimlane;fontStyle=2;align=center;verticalAlign=top;childLayout=stackLayout;horizontal=1;startSize=26;horizontalStack=0;resizeParent=1;resizeLast=0;collapsible=1;marginBottom=0;rounded=0;shadow=0;strokeWidth=1;" vertex="1" parent="WIyWlLk6GJQsqaUBKTNV-1">
          <mxGeometry x="400" y="420" width="160" height="82" as="geometry">
            <mxRectangle x="230" y="140" width="160" height="26" as="alternateBounds" />
          </mxGeometry>
        </mxCell>
        <mxCell id="6tYTIHBlfklHP2yxRY0i-39" value="" style="endArrow=classic;html=1;rounded=0;exitX=1;exitY=0.6;exitDx=0;exitDy=0;exitPerimeter=0;" edge="1" parent="6tYTIHBlfklHP2yxRY0i-24" source="6tYTIHBlfklHP2yxRY0i-26">
          <mxGeometry width="50" height="50" relative="1" as="geometry">
            <mxPoint x="30" y="70" as="sourcePoint" />
            <mxPoint x="240" y="-130" as="targetPoint" />
            <Array as="points">
              <mxPoint x="80" y="70" />
              <mxPoint x="240" y="70" />
            </Array>
          </mxGeometry>
        </mxCell>
        <mxCell id="6tYTIHBlfklHP2yxRY0i-43" value="class&#xa;" style="text;align=left;verticalAlign=top;spacingLeft=4;spacingRight=4;overflow=hidden;rotatable=0;points=[[0,0.5],[1,0.5]];portConstraint=eastwest;" vertex="1" parent="6tYTIHBlfklHP2yxRY0i-24">
          <mxGeometry y="26" width="160" height="26" as="geometry" />
        </mxCell>
        <mxCell id="6tYTIHBlfklHP2yxRY0i-26" value="slots&lt;br&gt;" style="text;html=1;align=left;verticalAlign=middle;resizable=0;points=[];autosize=1;strokeColor=none;fillColor=none;spacingLeft=4;" vertex="1" parent="6tYTIHBlfklHP2yxRY0i-24">
          <mxGeometry y="52" width="160" height="30" as="geometry" />
        </mxCell>
        <mxCell id="6tYTIHBlfklHP2yxRY0i-27" value="But class is an Object and we haven&#39;t yet defined Object" style="ellipse;whiteSpace=wrap;html=1;" vertex="1" parent="WIyWlLk6GJQsqaUBKTNV-1">
          <mxGeometry x="230" y="378" width="170" height="82" as="geometry" />
        </mxCell>
        <mxCell id="6tYTIHBlfklHP2yxRY0i-30" value="" style="endArrow=classic;html=1;rounded=0;entryX=1.005;entryY=0.406;entryDx=0;entryDy=0;entryPerimeter=0;exitX=0.124;exitY=0.004;exitDx=0;exitDy=0;exitPerimeter=0;" edge="1" parent="WIyWlLk6GJQsqaUBKTNV-1" source="6tYTIHBlfklHP2yxRY0i-24" target="6tYTIHBlfklHP2yxRY0i-17">
          <mxGeometry relative="1" as="geometry">
            <mxPoint x="410" y="440" as="sourcePoint" />
            <mxPoint x="190" y="390" as="targetPoint" />
            <Array as="points">
              <mxPoint x="420" y="360" />
            </Array>
          </mxGeometry>
        </mxCell>
        <mxCell id="6tYTIHBlfklHP2yxRY0i-31" value="Class is a subclass of Object" style="edgeLabel;resizable=0;html=1;align=center;verticalAlign=middle;" connectable="0" vertex="1" parent="6tYTIHBlfklHP2yxRY0i-30">
          <mxGeometry relative="1" as="geometry">
            <mxPoint x="-30" as="offset" />
          </mxGeometry>
        </mxCell>
        <mxCell id="6tYTIHBlfklHP2yxRY0i-33" value="1" style="ellipse;whiteSpace=wrap;html=1;aspect=fixed;fillColor=#dae8fc;strokeColor=#6c8ebf;" vertex="1" parent="WIyWlLk6GJQsqaUBKTNV-1">
          <mxGeometry x="10" y="40" width="38" height="38" as="geometry" />
        </mxCell>
        <mxCell id="6tYTIHBlfklHP2yxRY0i-34" value="2" style="ellipse;whiteSpace=wrap;html=1;aspect=fixed;fillColor=#dae8fc;strokeColor=#6c8ebf;" vertex="1" parent="WIyWlLk6GJQsqaUBKTNV-1">
          <mxGeometry x="510" y="30" width="38" height="38" as="geometry" />
        </mxCell>
        <mxCell id="6tYTIHBlfklHP2yxRY0i-35" value="3" style="ellipse;whiteSpace=wrap;html=1;aspect=fixed;fillColor=#dae8fc;strokeColor=#6c8ebf;" vertex="1" parent="WIyWlLk6GJQsqaUBKTNV-1">
          <mxGeometry x="10" y="290" width="38" height="38" as="geometry" />
        </mxCell>
        <mxCell id="6tYTIHBlfklHP2yxRY0i-36" value="4" style="ellipse;whiteSpace=wrap;html=1;aspect=fixed;fillColor=#dae8fc;strokeColor=#6c8ebf;" vertex="1" parent="WIyWlLk6GJQsqaUBKTNV-1">
          <mxGeometry x="430" y="378" width="38" height="38" as="geometry" />
        </mxCell>
        <mxCell id="6tYTIHBlfklHP2yxRY0i-37" value="" style="shape=image;html=1;verticalAlign=top;verticalLabelPosition=bottom;labelBackgroundColor=#ffffff;imageAspect=0;aspect=fixed;image=https://cdn0.iconfinder.com/data/icons/math-business-icon-set/93/1_9-128.png" vertex="1" parent="WIyWlLk6GJQsqaUBKTNV-1">
          <mxGeometry x="305.5" y="380" width="19" height="19" as="geometry" />
        </mxCell>
        <mxCell id="6tYTIHBlfklHP2yxRY0i-44" value="Object is an instance of Class" style="endArrow=none;dashed=1;html=1;dashPattern=1 3;strokeWidth=2;rounded=0;exitX=1;exitY=0.25;exitDx=0;exitDy=0;" edge="1" parent="WIyWlLk6GJQsqaUBKTNV-1" source="6tYTIHBlfklHP2yxRY0i-15" target="6tYTIHBlfklHP2yxRY0i-43">
          <mxGeometry x="-0.3793" width="50" height="50" relative="1" as="geometry">
            <mxPoint x="210" y="360" as="sourcePoint" />
            <mxPoint x="550" y="640" as="targetPoint" />
            <Array as="points">
              <mxPoint x="480" y="319" />
              <mxPoint x="610" y="319" />
              <mxPoint x="610" y="459" />
              <mxPoint x="480" y="459" />
            </Array>
            <mxPoint as="offset" />
          </mxGeometry>
        </mxCell>
        <mxCell id="6tYTIHBlfklHP2yxRY0i-45" value="When an instance of Object is allocated the slots are initialized with the structure of the StandardClass, with their values unbound" style="rounded=1;whiteSpace=wrap;html=1;" vertex="1" parent="WIyWlLk6GJQsqaUBKTNV-1">
          <mxGeometry x="650" y="310" width="240" height="70" as="geometry" />
        </mxCell>
        <mxCell id="6tYTIHBlfklHP2yxRY0i-46" value="Because all instances of Class are Object&lt;br&gt;When an instance of Class is allocated the slots are initialized with the structure of the StandardClass, with their values unbound" style="rounded=1;whiteSpace=wrap;html=1;" vertex="1" parent="WIyWlLk6GJQsqaUBKTNV-1">
          <mxGeometry x="650" y="390" width="240" height="70" as="geometry" />
        </mxCell>
        <mxCell id="6tYTIHBlfklHP2yxRY0i-52" value="Object slots (after allocation)" style="swimlane;fontStyle=2;align=center;verticalAlign=top;childLayout=stackLayout;horizontal=1;startSize=26;horizontalStack=0;resizeParent=1;resizeLast=0;collapsible=1;marginBottom=0;rounded=0;shadow=0;strokeWidth=1;" vertex="1" parent="WIyWlLk6GJQsqaUBKTNV-1">
          <mxGeometry x="670" y="482" width="210" height="240" as="geometry">
            <mxRectangle x="230" y="140" width="160" height="26" as="alternateBounds" />
          </mxGeometry>
        </mxCell>
        <mxCell id="6tYTIHBlfklHP2yxRY0i-53" value="name: Object" style="text;align=left;verticalAlign=top;spacingLeft=4;spacingRight=4;overflow=hidden;rotatable=0;points=[[0,0.5],[1,0.5]];portConstraint=eastwest;" vertex="1" parent="6tYTIHBlfklHP2yxRY0i-52">
          <mxGeometry y="26" width="210" height="26" as="geometry" />
        </mxCell>
        <mxCell id="6tYTIHBlfklHP2yxRY0i-54" value="direct_superclasses: nothing" style="text;html=1;align=left;verticalAlign=middle;resizable=0;points=[];autosize=1;strokeColor=none;fillColor=none;spacingLeft=4;" vertex="1" parent="6tYTIHBlfklHP2yxRY0i-52">
          <mxGeometry y="52" width="210" height="30" as="geometry" />
        </mxCell>
        <mxCell id="6tYTIHBlfklHP2yxRY0i-55" value="direct_slots: nothing" style="text;html=1;align=left;verticalAlign=middle;resizable=0;points=[];autosize=1;strokeColor=none;fillColor=none;spacingLeft=4;" vertex="1" parent="6tYTIHBlfklHP2yxRY0i-52">
          <mxGeometry y="82" width="210" height="30" as="geometry" />
        </mxCell>
        <mxCell id="6tYTIHBlfklHP2yxRY0i-56" value="class_precedence_list: nothing" style="text;html=1;align=left;verticalAlign=middle;resizable=0;points=[];autosize=1;strokeColor=none;fillColor=none;spacingLeft=4;" vertex="1" parent="6tYTIHBlfklHP2yxRY0i-52">
          <mxGeometry y="112" width="210" height="30" as="geometry" />
        </mxCell>
        <mxCell id="6tYTIHBlfklHP2yxRY0i-57" value="effective_slots: nothing" style="text;html=1;align=left;verticalAlign=middle;resizable=0;points=[];autosize=1;strokeColor=none;fillColor=none;spacingLeft=4;" vertex="1" parent="6tYTIHBlfklHP2yxRY0i-52">
          <mxGeometry y="142" width="210" height="30" as="geometry" />
        </mxCell>
        <mxCell id="6tYTIHBlfklHP2yxRY0i-58" value="direct_subclasses: nothing" style="text;html=1;align=left;verticalAlign=middle;resizable=0;points=[];autosize=1;strokeColor=none;fillColor=none;spacingLeft=4;" vertex="1" parent="6tYTIHBlfklHP2yxRY0i-52">
          <mxGeometry y="172" width="210" height="30" as="geometry" />
        </mxCell>
        <mxCell id="6tYTIHBlfklHP2yxRY0i-59" value="direct_methods: nothing" style="text;html=1;align=left;verticalAlign=middle;resizable=0;points=[];autosize=1;strokeColor=none;fillColor=none;spacingLeft=4;" vertex="1" parent="6tYTIHBlfklHP2yxRY0i-52">
          <mxGeometry y="202" width="210" height="30" as="geometry" />
        </mxCell>
        <mxCell id="6tYTIHBlfklHP2yxRY0i-61" value="Text" style="text;html=1;strokeColor=none;fillColor=none;align=center;verticalAlign=middle;whiteSpace=wrap;rounded=0;" vertex="1" parent="WIyWlLk6GJQsqaUBKTNV-1">
          <mxGeometry x="-800" y="20" width="60" height="30" as="geometry" />
        </mxCell>
        <mxCell id="6tYTIHBlfklHP2yxRY0i-62" value="Object slots (after initialization)" style="swimlane;fontStyle=2;align=center;verticalAlign=top;childLayout=stackLayout;horizontal=1;startSize=26;horizontalStack=0;resizeParent=1;resizeLast=0;collapsible=1;marginBottom=0;rounded=0;shadow=0;strokeWidth=1;" vertex="1" parent="WIyWlLk6GJQsqaUBKTNV-1">
          <mxGeometry x="670" y="740" width="210" height="240" as="geometry">
            <mxRectangle x="230" y="140" width="160" height="26" as="alternateBounds" />
          </mxGeometry>
        </mxCell>
        <mxCell id="6tYTIHBlfklHP2yxRY0i-63" value="name: Object" style="text;align=left;verticalAlign=top;spacingLeft=4;spacingRight=4;overflow=hidden;rotatable=0;points=[[0,0.5],[1,0.5]];portConstraint=eastwest;" vertex="1" parent="6tYTIHBlfklHP2yxRY0i-62">
          <mxGeometry y="26" width="210" height="26" as="geometry" />
        </mxCell>
        <mxCell id="6tYTIHBlfklHP2yxRY0i-64" value="direct_superclasses: [ Top ]" style="text;html=1;align=left;verticalAlign=middle;resizable=0;points=[];autosize=1;strokeColor=none;fillColor=none;spacingLeft=4;" vertex="1" parent="6tYTIHBlfklHP2yxRY0i-62">
          <mxGeometry y="52" width="210" height="30" as="geometry" />
        </mxCell>
        <mxCell id="6tYTIHBlfklHP2yxRY0i-65" value="direct_slots: nothing" style="text;html=1;align=left;verticalAlign=middle;resizable=0;points=[];autosize=1;strokeColor=none;fillColor=none;spacingLeft=4;" vertex="1" parent="6tYTIHBlfklHP2yxRY0i-62">
          <mxGeometry y="82" width="210" height="30" as="geometry" />
        </mxCell>
        <mxCell id="6tYTIHBlfklHP2yxRY0i-66" value="class_precedence_list: [ Top ]" style="text;html=1;align=left;verticalAlign=middle;resizable=0;points=[];autosize=1;strokeColor=none;fillColor=none;spacingLeft=4;" vertex="1" parent="6tYTIHBlfklHP2yxRY0i-62">
          <mxGeometry y="112" width="210" height="30" as="geometry" />
        </mxCell>
        <mxCell id="6tYTIHBlfklHP2yxRY0i-67" value="effective_slots: nothing" style="text;html=1;align=left;verticalAlign=middle;resizable=0;points=[];autosize=1;strokeColor=none;fillColor=none;spacingLeft=4;" vertex="1" parent="6tYTIHBlfklHP2yxRY0i-62">
          <mxGeometry y="142" width="210" height="30" as="geometry" />
        </mxCell>
        <mxCell id="6tYTIHBlfklHP2yxRY0i-68" value="direct_subclasses: nothing" style="text;html=1;align=left;verticalAlign=middle;resizable=0;points=[];autosize=1;strokeColor=none;fillColor=none;spacingLeft=4;" vertex="1" parent="6tYTIHBlfklHP2yxRY0i-62">
          <mxGeometry y="172" width="210" height="30" as="geometry" />
        </mxCell>
        <mxCell id="6tYTIHBlfklHP2yxRY0i-69" value="direct_methods: nothing" style="text;html=1;align=left;verticalAlign=middle;resizable=0;points=[];autosize=1;strokeColor=none;fillColor=none;spacingLeft=4;" vertex="1" parent="6tYTIHBlfklHP2yxRY0i-62">
          <mxGeometry y="202" width="210" height="30" as="geometry" />
        </mxCell>
        <mxCell id="6tYTIHBlfklHP2yxRY0i-70" value="&lt;b&gt;Doubt:&lt;br&gt;In case the name is not bound in the allocation, how can it be accessed in the initialization, where only instance (with no name) and initargs (with no name) are supplied?&lt;br&gt;&lt;/b&gt;" style="text;html=1;strokeColor=#b85450;fillColor=#f8cecc;align=center;verticalAlign=middle;whiteSpace=wrap;rounded=0;" vertex="1" parent="WIyWlLk6GJQsqaUBKTNV-1">
          <mxGeometry x="890" y="584" width="130" height="250" as="geometry" />
        </mxCell>
        <mxCell id="6tYTIHBlfklHP2yxRY0i-74" value="The reason to divide this 2 structures is because not all instances are classes, but every class is an instance (being represented by StandardObject)" style="rounded=1;whiteSpace=wrap;html=1;fillColor=#fff2cc;strokeColor=#d6b656;" vertex="1" parent="WIyWlLk6GJQsqaUBKTNV-1">
          <mxGeometry x="290" y="30" width="190" height="90" as="geometry" />
        </mxCell>
        <mxCell id="6tYTIHBlfklHP2yxRY0i-91" value="Given an instance of StandardObject, the way to access:&lt;br&gt;&lt;br&gt;- The class who this Object is instance_of: class_of(instance)&lt;br&gt;&lt;br&gt;- The slots of this instance: &lt;br&gt;-&amp;gt; instance.blabla will access the slot blabla inside slots" style="rounded=1;whiteSpace=wrap;html=1;" vertex="1" parent="WIyWlLk6GJQsqaUBKTNV-1">
          <mxGeometry x="-370" y="40" width="340" height="118" as="geometry" />
        </mxCell>
        <mxCell id="6tYTIHBlfklHP2yxRY0i-93" value="&lt;b&gt;Doubt:&lt;br&gt;Given the object Class and the object ComplexNumber, which are both instances of Class and subclass of Object:&lt;br&gt;Class.slots = [:name, :direct_superclasses, :direc_slots,..]&lt;br&gt;ComplexNumber.direct_slots = [:real, :imag]&lt;br&gt;ComplexNumber.slots = ???&lt;br&gt;I would say that it would have to be the same as Class.slots. But if that was the case, how does this getproperty works?&lt;br&gt;Is it just displaying differently using Base.show() or saving as it is displayed (list-like)?&lt;br&gt;&lt;/b&gt;" style="text;html=1;strokeColor=#b85450;fillColor=#f8cecc;align=center;verticalAlign=middle;whiteSpace=wrap;rounded=0;" vertex="1" parent="WIyWlLk6GJQsqaUBKTNV-1">
          <mxGeometry x="-370" y="170" width="350" height="150" as="geometry" />
        </mxCell>
        <mxCell id="6tYTIHBlfklHP2yxRY0i-97" value="&lt;b&gt;Doubt:&lt;br&gt;class_name(class)&lt;br&gt;&lt;br&gt;If I don&#39;t save a mapping (StdObject -&amp;gt; class_name::Symbol) then how am I supposed to retrieve the name given the class&#39;s object?&lt;br&gt;&lt;br&gt;(Considering your comment last week that you would prefer we had no mapping)&lt;br&gt;&lt;/b&gt;" style="text;html=1;strokeColor=#b85450;fillColor=#f8cecc;align=center;verticalAlign=middle;whiteSpace=wrap;rounded=0;" vertex="1" parent="WIyWlLk6GJQsqaUBKTNV-1">
          <mxGeometry x="856" y="130" width="385" height="120" as="geometry" />
        </mxCell>
        <mxCell id="6tYTIHBlfklHP2yxRY0i-98" value="Printing objects:&lt;br&gt;&lt;br&gt;&amp;lt; class instance &amp;gt;" style="rounded=1;whiteSpace=wrap;html=1;" vertex="1" parent="WIyWlLk6GJQsqaUBKTNV-1">
          <mxGeometry x="856" y="52" width="384" height="70" as="geometry" />
        </mxCell>
        <mxCell id="6tYTIHBlfklHP2yxRY0i-100" value="StandardGenericFunction" style="swimlane;fontStyle=2;align=center;verticalAlign=top;childLayout=stackLayout;horizontal=1;startSize=26;horizontalStack=0;resizeParent=1;resizeLast=0;collapsible=1;marginBottom=0;rounded=0;shadow=0;strokeWidth=1;" vertex="1" parent="WIyWlLk6GJQsqaUBKTNV-1">
          <mxGeometry x="-290" y="470" width="160" height="120" as="geometry">
            <mxRectangle x="230" y="140" width="160" height="26" as="alternateBounds" />
          </mxGeometry>
        </mxCell>
        <mxCell id="6tYTIHBlfklHP2yxRY0i-101" value="name" style="text;align=left;verticalAlign=top;spacingLeft=4;spacingRight=4;overflow=hidden;rotatable=0;points=[[0,0.5],[1,0.5]];portConstraint=eastwest;" vertex="1" parent="6tYTIHBlfklHP2yxRY0i-100">
          <mxGeometry y="26" width="160" height="26" as="geometry" />
        </mxCell>
        <mxCell id="6tYTIHBlfklHP2yxRY0i-102" value="lambda_list" style="text;html=1;align=left;verticalAlign=middle;resizable=0;points=[];autosize=1;strokeColor=none;fillColor=none;spacingLeft=4;" vertex="1" parent="6tYTIHBlfklHP2yxRY0i-100">
          <mxGeometry y="52" width="160" height="30" as="geometry" />
        </mxCell>
        <mxCell id="6tYTIHBlfklHP2yxRY0i-103" value="methods" style="text;html=1;align=left;verticalAlign=middle;resizable=0;points=[];autosize=1;strokeColor=none;fillColor=none;spacingLeft=4;" vertex="1" parent="6tYTIHBlfklHP2yxRY0i-100">
          <mxGeometry y="82" width="160" height="30" as="geometry" />
        </mxCell>
        <mxCell id="6tYTIHBlfklHP2yxRY0i-108" value="This is the standard structure for the instances of generic functions in our system" style="text;html=1;strokeColor=none;fillColor=none;align=center;verticalAlign=middle;whiteSpace=wrap;rounded=0;" vertex="1" parent="WIyWlLk6GJQsqaUBKTNV-1">
          <mxGeometry x="-330" y="420" width="250" height="50" as="geometry" />
        </mxCell>
        <mxCell id="6tYTIHBlfklHP2yxRY0i-110" value="GenericFunction" style="swimlane;fontStyle=2;align=center;verticalAlign=top;childLayout=stackLayout;horizontal=1;startSize=26;horizontalStack=0;resizeParent=1;resizeLast=0;collapsible=1;marginBottom=0;rounded=0;shadow=0;strokeWidth=1;" vertex="1" parent="WIyWlLk6GJQsqaUBKTNV-1">
          <mxGeometry x="-30" y="502" width="160" height="82" as="geometry">
            <mxRectangle x="230" y="140" width="160" height="26" as="alternateBounds" />
          </mxGeometry>
        </mxCell>
        <mxCell id="6tYTIHBlfklHP2yxRY0i-116" value="" style="endArrow=classic;html=1;rounded=0;entryX=1.017;entryY=0.159;entryDx=0;entryDy=0;entryPerimeter=0;" edge="1" parent="6tYTIHBlfklHP2yxRY0i-110" target="6tYTIHBlfklHP2yxRY0i-100">
          <mxGeometry width="50" height="50" relative="1" as="geometry">
            <mxPoint y="68" as="sourcePoint" />
            <mxPoint x="50" y="18" as="targetPoint" />
            <Array as="points">
              <mxPoint x="-50" y="68" />
              <mxPoint x="-50" y="-12" />
            </Array>
          </mxGeometry>
        </mxCell>
        <mxCell id="6tYTIHBlfklHP2yxRY0i-111" value="class" style="text;align=left;verticalAlign=top;spacingLeft=4;spacingRight=4;overflow=hidden;rotatable=0;points=[[0,0.5],[1,0.5]];portConstraint=eastwest;" vertex="1" parent="6tYTIHBlfklHP2yxRY0i-110">
          <mxGeometry y="26" width="160" height="26" as="geometry" />
        </mxCell>
        <mxCell id="6tYTIHBlfklHP2yxRY0i-112" value="slots" style="text;html=1;align=left;verticalAlign=middle;resizable=0;points=[];autosize=1;strokeColor=none;fillColor=none;spacingLeft=4;" vertex="1" parent="6tYTIHBlfklHP2yxRY0i-110">
          <mxGeometry y="52" width="160" height="30" as="geometry" />
        </mxCell>
        <mxCell id="6tYTIHBlfklHP2yxRY0i-114" value="GenericFunction is an instance of Class" style="endArrow=none;dashed=1;html=1;dashPattern=1 3;strokeWidth=2;rounded=0;" edge="1" parent="WIyWlLk6GJQsqaUBKTNV-1" target="6tYTIHBlfklHP2yxRY0i-15">
          <mxGeometry x="0.5135" width="50" height="50" relative="1" as="geometry">
            <mxPoint x="90" y="540" as="sourcePoint" />
            <mxPoint x="150" y="430" as="targetPoint" />
            <Array as="points">
              <mxPoint x="10" y="540" />
              <mxPoint x="140" y="540" />
            </Array>
            <mxPoint as="offset" />
          </mxGeometry>
        </mxCell>
        <mxCell id="6tYTIHBlfklHP2yxRY0i-117" value="5" style="ellipse;whiteSpace=wrap;html=1;aspect=fixed;fillColor=#dae8fc;strokeColor=#6c8ebf;" vertex="1" parent="WIyWlLk6GJQsqaUBKTNV-1">
          <mxGeometry x="-8" y="460" width="38" height="38" as="geometry" />
        </mxCell>
      </root>
    </mxGraphModel>
  </diagram>
</mxfile>
